<?xml version="1.0" standalone="no"?>
<!DOCTYPE svg PUBLIC "-//W3C//DTD SVG 20010904//EN"
 "http://www.w3.org/TR/2001/REC-SVG-20010904/DTD/svg10.dtd">
<svg version="1.0" xmlns="http://www.w3.org/2000/svg"
 width="411.000000pt" height="409.000000pt" viewBox="0 0 411.000000 409.000000"
 preserveAspectRatio="xMidYMid meet">
<metadata>
Created by potrace 1.16, written by Peter Selinger 2001-2019
</metadata>
<g transform="translate(0.000000,409.000000) scale(0.100000,-0.100000)"
fill="#000000" stroke="none">
<path d="M0 2045 l0 -2045 2055 0 2055 0 0 2045 0 2045 -2055 0 -2055 0 0
-2045z m4070 -10 l0 -2025 -2013 0 -2013 0 -12 33 c-9 26 -12 500 -12 2025 l0
1992 2025 0 2025 0 0 -2025z"/>
<path d="M1155 3041 c-93 -7 -141 -31 -177 -89 l-23 -37 -5 -655 -5 -655 -70
-3 c-76 -3 -91 -14 -69 -47 8 -12 12 -28 9 -36 -4 -8 -40 -41 -82 -73 -81 -64
-103 -99 -103 -163 0 -81 55 -142 136 -151 31 -3 62 -15 83 -31 l34 -26 1171
-3 c644 -1 1185 0 1203 3 18 3 46 17 62 30 16 14 41 25 55 25 35 0 87 22 108
46 29 33 41 100 28 155 -10 39 -24 60 -81 116 -72 70 -83 95 -49 113 11 6 17
16 14 25 -4 10 -27 15 -87 17 l-82 3 -3 545 -2 544 26 21 27 22 -19 31 c-10
18 -22 32 -26 32 -4 0 -8 20 -8 44 0 58 -14 93 -53 134 -69 72 9 67 -1012 68
-506 0 -956 -2 -1000 -5z m885 -58 c0 -5 -7 -17 -15 -27 -23 -30 -18 -74 11
-103 65 -65 175 29 119 103 -8 10 -15 22 -15 27 0 4 186 6 413 5 358 -3 412
-5 412 -18 0 -13 -46 -15 -344 -18 -245 -2 -348 -6 -358 -14 -8 -6 -25 -32
-38 -57 -29 -59 -68 -81 -137 -81 -70 0 -113 26 -139 85 -11 25 -28 49 -39 55
-12 7 -138 9 -352 8 l-333 -3 -3 -57 -3 -57 33 -6 c18 -3 69 -5 113 -3 l80 3
3 33 c3 31 5 32 47 32 30 0 45 -5 49 -16 7 -19 0 -34 -17 -34 -7 0 -17 -10
-22 -22 -16 -36 -51 -44 -188 -40 l-129 3 -16 30 c-9 16 -24 29 -33 29 -36 0
-31 36 7 50 19 8 23 15 20 42 -7 61 -32 58 440 58 239 0 434 -3 434 -7z m981
-5 c1 -7 0 -27 -1 -43 0 -17 7 -42 18 -55 21 -28 38 -110 22 -110 -5 0 -17 11
-26 24 -12 19 -28 26 -71 32 -47 6 -65 3 -119 -20 -88 -36 -127 -35 -154 5
-17 23 -29 29 -49 27 -16 -2 -26 2 -25 10 4 43 -5 41 192 44 l187 3 1 40 c1
22 2 43 3 48 2 12 21 8 22 -5z m-1891 -12 c0 -8 -16 -30 -35 -49 l-35 -35 0
-446 0 -446 21 12 c15 10 19 20 14 38 -19 87 -19 88 16 121 55 51 100 69 178
69 67 0 70 1 117 43 62 55 75 62 156 81 155 36 278 49 507 53 315 7 370 -7
577 -142 65 -42 94 -55 123 -55 107 0 252 -42 296 -86 19 -19 37 -34 40 -34 3
0 5 130 5 289 0 254 2 290 16 295 46 18 44 39 44 -529 l0 -535 -22 -5 c-13 -3
-500 -4 -1083 -3 l-1060 3 -3 600 c-2 330 0 625 3 655 6 45 13 60 42 87 35 34
83 45 83 19z m764 -95 c29 -31 1 -42 -95 -37 -46 3 -117 5 -156 5 -64 1 -73 3
-73 19 0 10 3 22 7 25 3 4 72 7 153 7 130 0 149 -2 164 -19z m604 7 c9 -9 15
-9 24 0 20 20 58 14 67 -10 5 -13 7 -26 4 -30 -2 -5 -74 -8 -159 -8 -129 0
-156 3 -160 15 -4 8 -1 22 6 30 16 19 199 22 218 3z m527 -135 l20 -24 78 27
c63 21 80 24 93 13 12 -10 13 -14 2 -24 -16 -14 -156 -65 -180 -65 -9 0 -30
14 -46 32 -30 31 -30 31 -79 18 -58 -16 -73 -26 -73 -51 0 -14 14 -23 57 -35
51 -15 133 -57 133 -68 0 -15 -14 -36 -24 -36 -6 0 -31 14 -56 30 -27 18 -58
30 -77 30 -56 0 -89 56 -67 114 14 37 127 79 179 68 11 -3 29 -16 40 -29z
m-300 -25 c18 -8 25 -19 25 -40 0 -30 -16 -36 -49 -19 -19 11 -47 -1 -38 -16
14 -23 161 -115 205 -129 26 -9 54 -18 62 -21 25 -8 -29 -45 -55 -39 -15 4
-28 -1 -40 -14 -32 -36 -80 -44 -171 -30 -90 13 -100 20 -124 84 -9 24 -23 42
-34 44 -17 4 -18 -1 -14 -47 l5 -51 -37 0 c-25 0 -40 5 -44 16 -10 26 -7 222
4 229 22 14 140 18 155 5 13 -11 19 -10 38 7 37 34 70 40 112 21z m-1221 -37
c32 -30 34 -78 5 -115 l-21 -27 32 -60 c17 -33 29 -66 27 -73 -7 -17 -67 -29
-82 -16 -7 6 -18 32 -25 58 -11 44 -23 61 -44 62 -4 0 -6 -34 -4 -75 l3 -75
-50 -15 c-27 -8 -81 -30 -119 -50 -53 -27 -71 -32 -78 -23 -13 22 -4 32 63 65
73 37 99 63 99 103 0 68 -17 74 -87 30 -56 -36 -63 -37 -63 -7 0 18 13 30 65
55 69 35 85 53 85 100 0 52 -22 58 -83 23 -65 -37 -67 -37 -67 -8 0 17 12 30
48 50 44 25 54 27 159 24 103 -2 114 -4 137 -26z m694 -34 c3 -24 0 -27 -27
-27 l-30 0 -3 -77 -3 -78 -37 -3 -38 -3 0 80 0 81 -35 0 c-30 0 -35 3 -35 24
0 28 18 33 135 31 68 -1 70 -1 73 -28z m190 11 c-2 -19 -10 -24 -41 -26 -30
-3 -37 -7 -35 -20 2 -9 13 -18 26 -20 30 -5 30 -39 0 -44 -15 -2 -24 -11 -26
-25 -3 -21 1 -23 37 -23 34 0 41 -3 41 -20 0 -25 -29 -32 -98 -22 l-54 7 -2
108 -2 107 79 0 c76 0 78 -1 75 -22z m-531 -28 c15 -22 32 -40 36 -40 5 0 7
17 5 38 -3 36 -2 37 32 40 l35 3 0 -103 c0 -57 -4 -106 -10 -110 -5 -4 -24 -8
-41 -8 -27 0 -34 6 -49 40 -10 22 -25 46 -33 52 -12 11 -14 4 -11 -42 l4 -55
-32 -3 -33 -3 0 110 c0 118 -3 113 57 120 6 0 24 -17 40 -39z m-129 -2 c-2
-18 -9 -23 -35 -23 -17 0 -35 -3 -38 -7 -14 -14 5 -38 29 -38 25 0 42 -25 24
-36 -6 -4 -20 -7 -32 -8 -14 -1 -22 -9 -24 -25 -4 -22 -1 -24 36 -18 42 5 58
-7 43 -32 -6 -10 -99 -31 -138 -31 -10 0 -13 31 -13 120 l0 120 76 0 c72 0 75
-1 72 -22z m1330 -226 c3 -21 0 -22 -55 -22 -69 0 -118 -27 -148 -84 -25 -45
-45 -47 -45 -3 0 38 48 103 89 119 76 31 154 26 159 -10z m257 -872 c0 -13
-143 -15 -1225 -15 -1160 0 -1225 1 -1228 18 -3 16 59 17 1225 15 1084 -3
1228 -5 1228 -18z m-912 -96 c9 -3 17 -10 17 -15 0 -5 -136 -9 -340 -9 -304 0
-376 5 -327 23 17 6 628 7 650 1z m1043 -98 c19 -26 18 -86 -2 -114 l-15 -22
-1354 0 -1354 0 -15 22 c-19 27 -21 88 -3 110 6 9 23 19 37 21 14 2 625 4
1358 3 1308 -1 1334 -1 1348 -20z"/>
<path d="M2090 2373 c-119 -5 -318 -25 -385 -39 -38 -9 -83 -26 -100 -39 -56
-43 -130 -114 -124 -119 6 -6 505 -26 652 -26 48 0 87 3 87 8 0 4 -34 31 -75
61 -69 51 -107 73 -195 115 l-35 17 41 -6 c51 -6 82 -21 224 -111 125 -78 154
-89 275 -99 96 -8 182 -26 250 -50 35 -13 92 -20 190 -24 88 -4 138 -10 135
-16 -9 -17 -257 -6 -320 15 -90 29 -162 42 -174 30 -20 -20 7 -64 53 -87 69
-35 119 -38 198 -13 54 17 88 20 163 18 52 -2 94 -7 92 -12 -1 -5 -47 -8 -101
-7 l-99 2 -31 -38 c-36 -44 -38 -61 -10 -97 20 -26 23 -26 140 -26 109 0 120
-2 117 -17 -3 -17 -25 -18 -258 -21 l-255 -2 -1 82 c0 93 -24 154 -69 184 -40
26 -41 8 -4 -44 29 -41 34 -56 37 -117 3 -52 -1 -75 -12 -90 -14 -19 -15 -16
-16 42 0 34 -5 74 -11 90 -27 72 -105 113 -178 93 -55 -14 -86 -43 -117 -105
l-26 -55 -150 0 c-97 0 -147 4 -143 10 4 6 60 10 136 10 111 0 129 2 129 16 0
14 -17 15 -122 14 -150 -3 -151 -2 -143 10 4 7 58 10 146 9 76 0 139 3 139 7
0 9 -32 11 -207 13 l-83 1 0 31 c0 20 -4 29 -12 26 -7 -2 -12 -16 -11 -30 l2
-27 -99 0 c-128 0 -132 -18 -5 -22 116 -4 125 -23 11 -23 -54 0 -81 -4 -83
-12 -4 -10 17 -13 81 -13 51 0 86 -4 86 -10 0 -6 -40 -10 -99 -10 l-99 0 -7
28 c-9 37 -50 90 -89 113 -23 14 -50 19 -107 19 -68 0 -78 -3 -99 -25 -20 -21
-32 -25 -83 -25 -74 0 -74 21 2 33 47 8 52 12 58 38 5 25 10 29 39 29 19 0 34
5 34 10 0 6 -14 10 -31 10 -36 0 -129 29 -129 40 0 13 41 20 117 20 l73 0 72
70 c101 97 66 95 -56 -3 -30 -24 -46 -29 -104 -32 -75 -4 -120 -20 -167 -58
l-30 -25 18 -36 c24 -51 21 -72 -13 -97 -36 -27 -46 -66 -27 -110 20 -48 45
-66 101 -72 53 -5 81 -26 92 -70 l6 -28 -88 3 c-59 2 -89 7 -92 16 -3 9 13 12
57 12 74 0 80 15 11 24 -36 5 -60 16 -85 38 l-36 31 3 -84 3 -84 1020 0 1020
0 3 150 c3 193 -17 254 -102 310 -28 19 -195 55 -253 55 -37 0 -58 9 -131 58
-96 65 -174 104 -242 122 -51 14 -207 26 -290 23z m-549 -420 c21 -23 42 -58
48 -79 l10 -39 106 3 c102 4 135 -4 135 -30 0 -5 -58 -7 -132 -6 l-133 3 -5
36 c-21 127 -144 171 -237 86 -29 -26 -30 -8 -2 27 29 37 55 46 118 42 49 -3
58 -7 92 -43z m864 -80 c14 -30 15 -42 6 -74 -11 -38 -70 -99 -96 -99 -53 0
-93 60 -80 120 8 36 50 89 79 100 34 12 73 -8 91 -47z m-916 21 c39 -50 21
-131 -38 -173 -38 -28 -66 -26 -96 4 -43 42 -28 141 27 179 35 25 83 20 107
-10z"/>
<path d="M1780 1275 c0 -8 13 -21 30 -30 24 -12 75 -15 288 -15 247 0 261 1
286 21 14 11 24 25 21 30 -4 5 -138 9 -316 9 -266 0 -309 -2 -309 -15z"/>
</g>
</svg>
